<svg xmlns:xlink="http://www.w3.org/1999/xlink" id="bac89b2c-7488-4ad2-a7f7-67c085b75819" preserveAspectRatio="xMidYMid meet" data-name="Layer 1" xmlns="http://www.w3.org/2000/svg" width="33.9666" height="54.4942" viewBox="0 0 33.9666 54.4942"><defs><style>.e1ffe02c-78f0-4aeb-addb-02a0a88226dd{fill:#d3d3d3;}.b7d735a2-7477-43cf-a70b-7c82d11a4ea6,.e09b4c58-6ab3-46db-a277-65de2496f9be{fill:none;stroke:#010101;stroke-width:2px;}.b7d735a2-7477-43cf-a70b-7c82d11a4ea6{stroke-linecap:round;}</style></defs><g id="f73deaea-6812-4328-9ea0-681cf1ae75d2" data-name="Group 23"><path class="e1ffe02c-78f0-4aeb-addb-02a0a88226dd" d="M29.1137,21.1988v25.17c0,2.51-5.98,4.55-13.34,4.55-7.37,0-13.34-2.04-13.34-4.55v-20.84c.9-1.96,2.39-3.89,4.71-3.89,4.43,0,5.02,3.96,10.23,3.96,5.42,0,4.21-4.4,11.7-4.4Z" fill="#D3D3D3"></path></g><g id="a3dd8b65-2ca1-4781-8bfc-a4c29d51180c" data-name="Group 23"><path class="e09b4c58-6ab3-46db-a277-65de2496f9be" d="M32.5624,48.4364c0,2.5149-5.9719,4.5537-13.3386,4.5537S5.8851,50.9513,5.8851,48.4364" stroke="#010101" fill="none" stroke-width="2px"></path><line class="e09b4c58-6ab3-46db-a277-65de2496f9be" x1="24.4138" y1="5.1335" x2="24.4038" y2="5.1335" stroke="#010101" fill="none" stroke-width="2px"></line><line class="e09b4c58-6ab3-46db-a277-65de2496f9be" x1="14.0438" y1="5.1335" x2="14.0338" y2="5.1335" stroke="#010101" fill="none" stroke-width="2px"></line><path class="e09b4c58-6ab3-46db-a277-65de2496f9be" d="M25.8038,5.3635c4.04.78,6.76,2.27,6.76,3.96,0,2.52-5.97,4.56-13.34,4.56s-13.34-2.04-13.34-4.56c0-1.69,2.72-3.18,6.76-3.96" stroke="#010101" fill="none" stroke-width="2px"></path><path class="e09b4c58-6ab3-46db-a277-65de2496f9be" d="M25.8023,8.1837c0,1.24-2.9453,2.2458-6.5785,2.2458S12.6453,9.424,12.6453,8.1837V3.75c0-1.24,2.9453-2.2459,6.5785-2.2459S25.8023,2.51,25.8023,3.75Z" stroke="#010101" fill="none" stroke-width="2px"></path><path class="e09b4c58-6ab3-46db-a277-65de2496f9be" d="M25.8023,3.75c0,1.24-2.9453,2.2459-6.5785,2.2459S12.6453,4.99,12.6453,3.75" stroke="#010101" fill="none" stroke-width="2px"></path><line class="e09b4c58-6ab3-46db-a277-65de2496f9be" x1="5.8851" y1="9.3252" x2="5.8851" y2="48.4364" stroke="#010101" fill="none" stroke-width="2px"></line><line class="e09b4c58-6ab3-46db-a277-65de2496f9be" x1="32.5624" y1="9.3252" x2="32.5624" y2="48.4364" stroke="#010101" fill="none" stroke-width="2px"></line><path id="ef231a1d-6710-4885-8664-69d3f0b0ecaa" data-name="Path 41" class="e09b4c58-6ab3-46db-a277-65de2496f9be" d="M13.73,31.7579H24.7179v5.2162s.476,3.0387-5.4941,3.0387S13.73,36.9741,13.73,36.9741Z" stroke="#010101" fill="none" stroke-width="2px"></path><path id="bef7b685-9945-47c2-99b3-2d314623a05c" data-name="Path 42" class="b7d735a2-7477-43cf-a70b-7c82d11a4ea6" d="M19.2247,40.0128v4.5861" stroke="#010101" fill="none" stroke-width="2px"></path><path id="ab714ebc-de2c-42a2-a160-2c55f677e055" data-name="Path 43" class="b7d735a2-7477-43cf-a70b-7c82d11a4ea6" d="M16.474,21.7136V26.526" stroke="#010101" fill="none" stroke-width="2px"></path><path id="e2ee0a4f-fb92-4658-a4c5-75d11ae3472b" data-name="Path 44" class="b7d735a2-7477-43cf-a70b-7c82d11a4ea6" d="M21.9763,21.7136V26.526" stroke="#010101" fill="none" stroke-width="2px"></path></g></svg>