<svg xmlns:xlink="http://www.w3.org/1999/xlink" id="f239eb3d-2192-4650-adf1-f5ca7744ad7b" preserveAspectRatio="xMidYMid meet" data-name="Layer 1" xmlns="http://www.w3.org/2000/svg" width="42.0151" height="54.4942" viewBox="0 0 42.0151 54.4942"><defs><style>.f5d6802a-8356-4fe2-9dba-42196f82dd90{fill:#d3d3d3;}.e7cb128f-c7bd-4753-9cdf-29cfedfa3c09{fill:none;stroke:#000;stroke-linecap:round;stroke-linejoin:round;stroke-width:2px;}</style></defs><path class="f5d6802a-8356-4fe2-9dba-42196f82dd90" d="M29.33,17.0581a.9846.9846,0,0,0-1.0442-.4714l-9.4312,1.88L24.863,2.8282a.9851.9851,0,0,0-1.6714-.99L.8456,28.2347A.9848.9848,0,0,0,1.79,29.8368l9.3863-1.871L4.945,43.2154a.9851.9851,0,0,0,1.6555,1.0187L29.2216,18.1985A.9847.9847,0,0,0,29.33,17.0581Z" fill="#D3D3D3"></path><g id="ea3c5918-761f-4b12-ae28-fa12b000acf2" data-name="Path 224"><polygon class="e7cb128f-c7bd-4753-9cdf-29cfedfa3c09" points="10.573 43.901 17.657 26.565 6.216 28.846 29.075 1.844 22.273 19.548 33.714 17.267 10.573 43.901" stroke="#000000" fill="none" stroke-width="2px"></polygon></g><line class="e7cb128f-c7bd-4753-9cdf-29cfedfa3c09" x1="33.7084" y1="17.272" x2="35.8745" y2="26.6645" stroke="#000000" fill="none" stroke-width="2px"></line><line class="e7cb128f-c7bd-4753-9cdf-29cfedfa3c09" x1="10.585" y1="43.8821" x2="12.7511" y2="53.2745" stroke="#000000" fill="none" stroke-width="2px"></line><line class="e7cb128f-c7bd-4753-9cdf-29cfedfa3c09" x1="6.2077" y1="28.8484" x2="8.3738" y2="38.2408" stroke="#000000" fill="none" stroke-width="2px"></line><line class="e7cb128f-c7bd-4753-9cdf-29cfedfa3c09" x1="29.217" y1="1.8358" x2="31.383" y2="11.2283" stroke="#000000" fill="none" stroke-width="2px"></line><line class="e7cb128f-c7bd-4753-9cdf-29cfedfa3c09" x1="35.8946" y1="26.6872" x2="12.7536" y2="53.3205" stroke="#000000" fill="none" stroke-width="2px"></line><line class="e7cb128f-c7bd-4753-9cdf-29cfedfa3c09" x1="13.2863" y1="37.2615" x2="8.3738" y2="38.2408" stroke="#000000" fill="none" stroke-width="2px"></line><line class="e7cb128f-c7bd-4753-9cdf-29cfedfa3c09" x1="31.383" y1="11.2283" x2="28.5486" y2="18.2971" stroke="#000000" fill="none" stroke-width="2px"></line></svg>