<svg xmlns:xlink="http://www.w3.org/1999/xlink" id="ac784c97-9167-4022-8342-cda77297d705" preserveAspectRatio="xMidYMid meet" data-name="Layer 1" xmlns="http://www.w3.org/2000/svg" width="42.0151" height="54.4942" viewBox="0 0 42.0151 54.4942"><defs><style>.b9c8b5a0-0ca4-44c3-ad7d-3a4b25acf4d2{fill:#d3d3d3;}.b6648616-5be1-4c10-8385-4ed322cfd686{fill:none;stroke:#010101;stroke-linecap:round;stroke-linejoin:round;stroke-width:2px;}</style></defs><polygon class="b9c8b5a0-0ca4-44c3-ad7d-3a4b25acf4d2" points="0 31.755 1.425 21.297 11.884 21.297 10.459 31.755 0 31.755" fill="#D3D3D3"></polygon><polygon class="b9c8b5a0-0ca4-44c3-ad7d-3a4b25acf4d2" points="28.065 21.573 17.821 24.12 13.95 14.403 24.194 11.857 28.065 21.573" fill="#D3D3D3"></polygon><polygon class="b6648616-5be1-4c10-8385-4ed322cfd686" points="2.85 34.975 4.275 24.516 14.734 24.516 13.309 34.975 2.85 34.975" stroke="#010101" fill="none" stroke-width="2px"></polygon><polygon class="b6648616-5be1-4c10-8385-4ed322cfd686" points="13.31 34.975 14.735 24.516 19.119 29.746 17.694 40.205 13.31 34.975" stroke="#010101" fill="none" stroke-width="2px"></polygon><polygon class="b6648616-5be1-4c10-8385-4ed322cfd686" points="2.85 34.975 7.235 40.205 17.694 40.205 13.309 34.975 2.85 34.975" stroke="#010101" fill="none" stroke-width="2px"></polygon><polygon class="b9c8b5a0-0ca4-44c3-ad7d-3a4b25acf4d2" points="36.806 33.635 28.403 27.247 21.008 34.643 29.411 41.031 36.806 33.635" fill="#D3D3D3"></polygon><polygon class="b6648616-5be1-4c10-8385-4ed322cfd686" points="29.975 46.229 21.572 39.841 22.17 46.639 30.573 53.027 29.975 46.229" stroke="#010101" fill="none" stroke-width="2px"></polygon><polygon class="b6648616-5be1-4c10-8385-4ed322cfd686" points="37.371 38.833 37.969 45.631 30.573 53.027 29.976 46.228 37.371 38.833" stroke="#010101" fill="none" stroke-width="2px"></polygon><polygon class="b6648616-5be1-4c10-8385-4ed322cfd686" points="37.371 38.833 28.968 32.445 21.573 39.84 29.976 46.228 37.371 38.833" stroke="#010101" fill="none" stroke-width="2px"></polygon><polygon class="b6648616-5be1-4c10-8385-4ed322cfd686" points="30.279 18.29 19.973 20.573 16.353 10.761 26.659 8.478 30.279 18.29" stroke="#010101" fill="none" stroke-width="2px"></polygon><polygon class="b6648616-5be1-4c10-8385-4ed322cfd686" points="26.658 8.477 16.353 10.76 19.742 4.837 30.047 2.554 26.658 8.477" stroke="#010101" fill="none" stroke-width="2px"></polygon><polygon class="b6648616-5be1-4c10-8385-4ed322cfd686" points="30.279 18.29 33.667 12.366 30.047 2.554 26.659 8.478 30.279 18.29" stroke="#010101" fill="none" stroke-width="2px"></polygon></svg>